/* XPM */
static char * gnome_eog_xpm[] = {
"32 32 357 2",
"  	c None",
". 	c #0E0000",
"+ 	c #040000",
"@ 	c #010000",
"# 	c #1D0B0B",
"$ 	c #461515",
"% 	c #0E0404",
"& 	c #020000",
"* 	c #0B0303",
"= 	c #1D0C0C",
"- 	c #331A1A",
"; 	c #6B2929",
"> 	c #933434",
", 	c #511D1D",
"' 	c #080404",
") 	c #160606",
"! 	c #4E1D1D",
"~ 	c #7D3E3E",
"{ 	c #9C5454",
"] 	c #B25C5C",
"^ 	c #A33434",
"/ 	c #852626",
"( 	c #1F0A0A",
"_ 	c #070101",
": 	c #2B0D0D",
"< 	c #7A2C2C",
"[ 	c #9C4343",
"} 	c #B56060",
"| 	c #B96464",
"1 	c #B15151",
"2 	c #A23232",
"3 	c #7D1E1E",
"4 	c #481212",
"5 	c #020101",
"6 	c #260B0B",
"7 	c #732A2A",
"8 	c #A24A4A",
"9 	c #B66161",
"0 	c #BE6A6A",
"a 	c #B15656",
"b 	c #9D3535",
"c 	c #872121",
"d 	c #6B1F1F",
"e 	c #220909",
"f 	c #110606",
"g 	c #7A3131",
"h 	c #A64D4D",
"i 	c #BE6B6B",
"j 	c #C47474",
"k 	c #B05555",
"l 	c #A33C3C",
"m 	c #912626",
"n 	c #7B1F1F",
"o 	c #571919",
"p 	c #270D0D",
"q 	c #050101",
"r 	c #411616",
"s 	c #A44C4C",
"t 	c #B55C5C",
"u 	c #BA6666",
"v 	c #B76060",
"w 	c #A94848",
"x 	c #A33636",
"y 	c #882525",
"z 	c #732121",
"A 	c #3B1414",
"B 	c #240E0E",
"C 	c #1E0707",
"D 	c #813434",
"E 	c #B86363",
"F 	c #C97B7B",
"G 	c #C06E6E",
"H 	c #A53C3C",
"I 	c #A03232",
"J 	c #551818",
"K 	c #3B1515",
"L 	c #431B1B",
"M 	c #411515",
"N 	c #9A4B4B",
"O 	c #C67777",
"P 	c #CC7F7F",
"Q 	c #B96363",
"R 	c #AD4E4E",
"S 	c #9F2E2E",
"T 	c #942424",
"U 	c #782222",
"V 	c #421313",
"W 	c #481B1B",
"X 	c #542323",
"Y 	c #170909",
"Z 	c #762525",
"` 	c #B16060",
" .	c #BF6C6C",
"..	c #BD6969",
"+.	c #AD5151",
"@.	c #A84444",
"#.	c #A52D2D",
"$.	c #992C2C",
"%.	c #6D2121",
"&.	c #461818",
"*.	c #4C2020",
"=.	c #4D2020",
"-.	c #3E1A1A",
";.	c #090404",
">.	c #1A0404",
",.	c #812525",
"'.	c #BF6B6B",
").	c #C47373",
"!.	c #B76161",
"~.	c #AE5151",
"{.	c #AC3C3C",
"].	c #A52C2C",
"^.	c #962F2F",
"/.	c #6C2020",
"(.	c #511C1C",
"_.	c #4F2121",
":.	c #491E1E",
"<.	c #160909",
"[.	c #370808",
"}.	c #8F3434",
"|.	c #C16E6E",
"1.	c #C16F6F",
"2.	c #B65E5E",
"3.	c #B24F4F",
"4.	c #A93030",
"5.	c #9D2929",
"6.	c #8A2828",
"7.	c #701E1E",
"8.	c #631F1F",
"9.	c #4E2020",
"0.	c #4C1D1D",
"a.	c #110707",
"b.	c #000000",
"c.	c #490B0B",
"d.	c #A44848",
"e.	c #BC6868",
"f.	c #B55D5D",
"g.	c #AC4A4A",
"h.	c #A72F2F",
"i.	c #A12C2C",
"j.	c #8D2626",
"k.	c #7E1E1E",
"l.	c #721E1E",
"m.	c #521B1B",
"n.	c #512121",
"o.	c #562424",
"p.	c #532222",
"q.	c #3E1919",
"r.	c #090303",
"s.	c #050000",
"t.	c #080101",
"u.	c #0D0707",
"v.	c #450F0F",
"w.	c #A04949",
"x.	c #CB7A7A",
"y.	c #C46E6E",
"z.	c #B75959",
"A.	c #AC4848",
"B.	c #A83737",
"C.	c #A02828",
"D.	c #8B2323",
"E.	c #7E2121",
"F.	c #7E2525",
"G.	c #622626",
"H.	c #532323",
"I.	c #401A1A",
"J.	c #290808",
"K.	c #410505",
"L.	c #550606",
"M.	c #230000",
"N.	c #190404",
"O.	c #592A2A",
"P.	c #9A6A6A",
"Q.	c #5F4343",
"R.	c #331313",
"S.	c #4A2424",
"T.	c #6C2929",
"U.	c #822727",
"V.	c #982E2E",
"W.	c #9F2626",
"X.	c #922828",
"Y.	c #862929",
"Z.	c #7F2A2A",
"`.	c #682727",
" +	c #2F1414",
".+	c #1E0A0A",
"++	c #420E0E",
"@+	c #610707",
"#+	c #680202",
"$+	c #670101",
"%+	c #2D0000",
"&+	c #230404",
"*+	c #7B3434",
"=+	c #BA5C5C",
"-+	c #CE7373",
";+	c #D89090",
">+	c #D29191",
",+	c #815353",
"'+	c #4E2E2E",
")+	c #401E1E",
"!+	c #421D1D",
"~+	c #4A1D1D",
"{+	c #5B1E1E",
"]+	c #651E1E",
"^+	c #541717",
"/+	c #551212",
"(+	c #6D1515",
"_+	c #7C1717",
":+	c #7A1414",
"<+	c #680505",
"[+	c #550505",
"}+	c #370202",
"|+	c #0B0000",
"1+	c #1E0202",
"2+	c #431515",
"3+	c #A55252",
"4+	c #C05F5F",
"5+	c #C56262",
"6+	c #C96666",
"7+	c #CD6C6C",
"8+	c #CE6C6C",
"9+	c #C66060",
"0+	c #BB5555",
"a+	c #B65050",
"b+	c #A64040",
"c+	c #952F2F",
"d+	c #973131",
"e+	c #862020",
"f+	c #7B1717",
"g+	c #631111",
"h+	c #360606",
"i+	c #1F0000",
"j+	c #130606",
"k+	c #3C3C3C",
"l+	c #171717",
"m+	c #363232",
"n+	c #625555",
"o+	c #3E3838",
"p+	c #361C1C",
"q+	c #4A2525",
"r+	c #572B2B",
"s+	c #653232",
"t+	c #834343",
"u+	c #854343",
"v+	c #793838",
"w+	c #702F2F",
"x+	c #5D2525",
"y+	c #401818",
"z+	c #0E0506",
"A+	c #020303",
"B+	c #121718",
"C+	c #0D0F10",
"D+	c #525454",
"E+	c #B8B8B8",
"F+	c #989898",
"G+	c #353535",
"H+	c #585858",
"I+	c #EBEBEB",
"J+	c #DDDDDD",
"K+	c #131D1D",
"L+	c #2F4A4A",
"M+	c #111B1C",
"N+	c #3F3F3F",
"O+	c #5A5959",
"P+	c #302F2F",
"Q+	c #030101",
"R+	c #040101",
"S+	c #111D22",
"T+	c #204154",
"U+	c #284B61",
"V+	c #17252D",
"W+	c #858989",
"X+	c #A5A5A5",
"Y+	c #868686",
"Z+	c #343434",
"`+	c #282828",
" @	c #DADADA",
".@	c #E7E7E7",
"+@	c #233337",
"@@	c #53808E",
"#@	c #1C2628",
"$@	c #AAABAB",
"%@	c #CFCFCF",
"&@	c #2C2C2C",
"*@	c #081519",
"=@	c #19404F",
"-@	c #265062",
";@	c #112025",
">@	c #717474",
",@	c #848484",
"'@	c #636363",
")@	c #1E1E1E",
"!@	c #0B0B0B",
"~@	c #B7B7B7",
"{@	c #C8C8C8",
"]@	c #434B4E",
"^@	c #2E5460",
"/@	c #0C1A1B",
"(@	c #757676",
"_@	c #727272",
":@	c #050505",
"<@	c #182D2F",
"[@	c #3D6C6E",
"}@	c #294C4D",
"|@	c #111919",
"1@	c #6E7171",
"2@	c #333333",
"3@	c #0F0F0F",
"4@	c #3E3E3E",
"5@	c #8F8F8F",
"6@	c #636464",
"7@	c #243839",
"8@	c #254957",
"9@	c #04090D",
"0@	c #010101",
"a@	c #000101",
"b@	c #162224",
"c@	c #0A242F",
"d@	c #22424C",
"e@	c #2E3838",
"f@	c #313434",
"g@	c #4A4A4A",
"h@	c #2E2E2E",
"i@	c #121212",
"j@	c #505050",
"k@	c #2B2F32",
"l@	c #2E526C",
"m@	c #254758",
"n@	c #040607",
"o@	c #010202",
"p@	c #010303",
"q@	c #12272B",
"r@	c #335A6B",
"s@	c #315569",
"t@	c #091920",
"u@	c #232C2C",
"v@	c #3C3E3E",
"w@	c #151515",
"x@	c #030303",
"y@	c #040404",
"z@	c #1B1B1B",
"A@	c #282C2D",
"B@	c #4A5F61",
"C@	c #3E5962",
"D@	c #243A3E",
"E@	c #2C4449",
"F@	c #19363C",
"G@	c #1C3941",
"H@	c #163543",
"I@	c #213644",
"J@	c #101718",
"K@	c #060606",
"L@	c #0E0E0E",
"M@	c #101617",
"N@	c #0D1213",
"O@	c #0B1011",
"P@	c #030607",
"                                                                ",
"                                                                ",
"                                                                ",
"                                                                ",
"                                            . +                 ",
"                                        @ # $ %                 ",
"                                & * = - ; > , '                 ",
"                            @ ) ! ~ { ] ^ / (                   ",
"                        _ : < [ } | 1 2 3 4 5                   ",
"                        6 7 8 9 0 a b c d e                     ",
"                      f g h i j k l m n o p                     ",
"                    q r s t u v w x y z A B                     ",
"                    C D E F G i H I 3 J K L @                   ",
"                    M N O P Q R S T U V W X Y                   ",
"                  q Z `  ...+.@.#.$.%.&.*.=.-.;.                ",
"                  >.,.'.).!.~.{.].^./.(._._.:.<.                ",
"                  [.}.|.1.2.3.4.5.6.7.8.! =.9.0.a.              ",
"              b.  c.d.F e.f.g.h.i.j.k.l.m.n.o.p.q.r.b.s.        ",
"            t.u.# v.w.x.y.z.A.B.C.D.E.F.G.H.*.I.J.K.L.M.        ",
"            N.O.P.Q.R.S.T.U.V.W.X.Y.Z.`. +p .+++@+#+$+%+        ",
"            &+*+=+-+;+>+,+'+)+!+~+{+]+^+/+(+_+:+<+[+}+|+        ",
"            1+2+3+4+5+6+7+8+9+0+a+b+c+d+e+f+g+h+i+j+k+l+        ",
"              m+n+o+p+q+r+s+t+u+v+w+x+y+z+A+B+C+D+E+F+G+        ",
"              H+I+J+K+L+M+N+O+P+5 Q+R+b.S+T+U+V+W+X+Y+Z+        ",
"              `+ @.@+@@@#@$@%@&@b.b.b.b.*@=@-@;@>@,@'@)@        ",
"              !@~@{@]@^@/@(@_@b.b.:@b.b.<@[@}@|@1@'@2@3@        ",
"                4@5@6@7@8@9@0@0@b.b.a@b@c@d@e@f@g@h@            ",
"                i@&@j@k@l@m@n@o@a@p@q@r@s@t@u@v@w@x@            ",
"                    y@z@A@B@C@D@E@F@G@H@I@J@K@0@                ",
"                          L@M@N@O@P@o@A+                        ",
"                                                                ",
"                                                                "};
